<svg xmlns="http://www.w3.org/2000/svg" xmlns:xlink="http://www.w3.org/1999/xlink" width="181" height="98" viewBox="0 0 181 98"><defs><path id="a" d="M917.09 84a3 3 0 0 1 3-3h136.69c.14-.4.38-.8.71-1.12l8.48-8.49a3 3 0 0 1 4.24 0l8.49 8.49a3 3 0 0 1 .86 2.42c.34.48.53 1.07.53 1.7v64a3 3 0 0 1-3 3h-157a3 3 0 0 1-3-3z"/><mask id="c" width="2" height="2" x="-1" y="-1"><path fill="#fff" d="M917.09 70.53h163V151h-163z"/><use xlink:href="#a"/></mask><filter id="b" width="203" height="120.47" x="897.09" y="50.53" filterUnits="userSpaceOnUse"><feOffset in="SourceGraphic" result="FeOffset1022Out"/><feGaussianBlur in="FeOffset1022Out" result="FeGaussianBlur1023Out" stdDeviation="4 4"/></filter><linearGradient id="d" x1="998.09" x2="999.09" y1="151" y2="70.51" gradientUnits="userSpaceOnUse"><stop offset="0" stop-color="#fff"/><stop offset="1" stop-color="#fff"/></linearGradient></defs><desc>Generated with Avocode.</desc><g opacity=".95" transform="translate(-908 -62)"><g filter="url(#b)"><use fill="none" stroke-opacity=".55" stroke-width="0" mask="url(&quot;#c&quot;)" xlink:href="#a"/><use fill="#173b75" fill-opacity=".55" xlink:href="#a"/></g><use fill="url(#d)" xlink:href="#a"/></g></svg>